# xmcd
# Copyright (C) 1995-1998 Ti Kan
#
# Track frame offsets:
#       150
#       1242
#       17265
#       33788
#       51126
#       74141
#       93158
#       95133
#       109558
#       128407
#       147898
#       156548
#       168782
#       179164
#       190634
#
# Disc length: 3600 seconds
#
# Revision: 0
# Processed by: cddbd v1.4PL0 Copyright (c) Steve Scherf et al.
# Submitted via: CD-Transfer v1.0
#
DISCID=bc0e0e0f
DTITLE=Säx! - Säx!
DYEAR=2002
DGENRE=
TTITLE0=121234
TTITLE1=Wägg
TTITLE2=Maloney
TTITLE3=Bänz
TTITLE4=(Amitié Comme Mes) Pantalons Préférés
TTITLE5=Sousack
TTITLE6=Duschdibänz
TTITLE7=Mach!
TTITLE8=Ad
TTITLE9=Fründe
TTITLE10=Familie Magdalena
TTITLE11=Märlifee
TTITLE12=Wo Mir Üs No Hei Wöue
TTITLE13=Beröie
TTITLE14=Vrstriiche
EXTD=
EXTT0=
EXTT1=
EXTT2=
EXTT3=
EXTT4=
EXTT5=
EXTT6=
EXTT7=
EXTT8=
EXTT9=
EXTT10=
EXTT11=
EXTT12=
EXTT13=
EXTT14=
PLAYORDER=
